<svg width="20" height="20" viewBox="0 0 20 20" fill="none" xmlns="http://www.w3.org/2000/svg">
<path d="M6.84732 1.80734L6.84736 1.80732C7.33539 1.66056 7.86114 1.69628 8.3248 1.90782C8.78844 2.11936 9.15935 2.49228 9.36836 2.95707L10.0304 4.42805L10.0304 4.4281C10.2527 4.92275 10.3145 5.47459 10.2073 6.00618C10.1 6.53776 9.82905 7.02243 9.43238 7.39221C9.43237 7.39222 9.43236 7.39222 9.43235 7.39223L8.39011 8.36452C8.39001 8.36461 8.38992 8.3647 8.38982 8.36479C8.37111 8.38282 8.34779 8.42722 8.34552 8.52341C8.3433 8.61773 8.36193 8.74672 8.40876 8.91238C8.50226 9.24308 8.70291 9.70181 9.04077 10.2871C9.36353 10.8462 9.65228 11.2432 9.88549 11.4947C10.0023 11.6207 10.1027 11.7075 10.1841 11.7602C10.2673 11.814 10.3158 11.8226 10.3363 11.8203L10.3812 11.8118L12.4269 11.1865C12.4269 11.1865 12.4269 11.1865 12.4269 11.1865C12.7463 11.0887 13.0882 11.0933 13.4047 11.1997C13.7213 11.3061 13.9967 11.5088 14.1922 11.7795L14.1923 11.7796L15.5482 13.6596C15.5483 13.6596 15.5483 13.6596 15.5483 13.6596C15.846 14.0722 15.9838 14.5788 15.9361 15.0854C15.8884 15.5919 15.6585 16.0639 15.289 16.4136L6.84732 1.80734ZM6.84732 1.80734L6.13032 2.02334L6.13029 2.02334M6.84732 1.80734L6.13029 2.02334M6.13029 2.02334C5.47363 2.22137 4.8872 2.60287 4.44003 3.12293M6.13029 2.02334L4.44003 3.12293M8.93499 4.92017L8.93492 4.92002L8.30142 3.50809H8.30045L8.27394 3.44905C8.18444 3.24978 8.02551 3.08985 7.8268 2.99911C7.62809 2.90836 7.40315 2.89299 7.19394 2.95586L6.47703 3.17183C6.47702 3.17183 6.47701 3.17183 6.47701 3.17183C6.03916 3.30386 5.64815 3.55824 5.35001 3.90502C5.05186 4.25181 4.85901 4.67656 4.79415 5.12927L4.79414 5.12932C4.53776 6.91219 5.13263 9.09551 6.62675 11.6821L6.62676 11.6821C8.11687 14.2626 9.70749 15.8674 11.3755 16.5393L11.3755 16.5393C11.8017 16.7111 12.2683 16.7569 12.7198 16.6713C13.1713 16.5857 13.5887 16.3723 13.9224 16.0565L14.4654 15.5425C14.6238 15.3925 14.7224 15.1901 14.7428 14.9729C14.7631 14.7557 14.7039 14.5385 14.5761 14.3617L14.5761 14.3616L13.2201 12.4817C13.1712 12.414 13.1023 12.3633 13.0231 12.3368C12.9439 12.3102 12.8584 12.3092 12.7785 12.3337L12.7783 12.3337L10.6903 12.9707L10.6818 12.9733L10.6817 12.973L10.5577 12.999L10.5522 13.0001L10.5522 13C10.0995 13.0687 9.6706 12.9026 9.2537 12.5417C8.83871 12.1824 8.42759 11.6236 8.00257 10.8871C7.55058 10.1047 7.26269 9.43182 7.17547 8.8689C7.08754 8.30146 7.20281 7.83599 7.56737 7.4905L7.56801 7.4899L7.56801 7.4899L8.61397 6.51594L8.93499 4.92017ZM8.93499 4.92017C9.05494 5.18635 9.08848 5.48342 9.0309 5.76964M8.93499 4.92017L9.0309 5.76964M4.44003 3.12293C3.99286 3.64298 3.70356 4.27995 3.60618 4.95887L4.44003 3.12293ZM9.0309 5.76964C8.97333 6.05584 8.82754 6.31682 8.61401 6.5159L9.0309 5.76964ZM14.747 16.9276L15.2889 16.4137L3.60617 4.95889C3.30465 7.05841 3.98022 9.49984 5.58656 12.2821C7.1889 15.0573 8.96136 16.861 10.9258 17.6528L10.9632 17.5601L10.9258 17.6528C11.5653 17.9106 12.2653 17.9792 12.9427 17.8507C13.6201 17.7221 14.2463 17.4018 14.7469 16.9277L14.747 16.9276Z" fill="#171717" stroke="#171717" stroke-width="0.2"/>
</svg>
