<svg width="19" height="19" viewBox="0 0 19 19" fill="none" xmlns="http://www.w3.org/2000/svg">
<g clip-path="url(#clip0_70_750)">
<path d="M15.88 4.2074C15.4969 3.82416 15.0421 3.52014 14.5415 3.31272C14.0409 3.1053 13.5043 2.99854 12.9625 2.99854C12.4206 2.99854 11.884 3.1053 11.3835 3.31272C10.8829 3.52014 10.428 3.82416 10.045 4.2074L9.24997 5.0024L8.45497 4.2074C7.6812 3.43364 6.63174 2.99894 5.53747 2.99894C4.44319 2.99894 3.39374 3.43364 2.61997 4.2074C1.8462 4.98117 1.4115 6.03063 1.4115 7.1249C1.4115 8.21918 1.8462 9.26864 2.61997 10.0424L3.41497 10.8374L9.24997 16.6724L15.085 10.8374L15.88 10.0424C16.2632 9.65934 16.5672 9.20451 16.7747 8.70392C16.9821 8.20333 17.0888 7.66677 17.0888 7.1249C17.0888 6.58304 16.9821 6.04648 16.7747 5.54589C16.5672 5.04529 16.2632 4.59047 15.88 4.2074Z" stroke="#DD4747" stroke-width="2" stroke-linecap="round" stroke-linejoin="round"/>
</g>
<defs>
<clipPath id="clip0_70_750">
<rect width="18" height="18" fill="white" transform="translate(0.25 0.75)"/>
</clipPath>
</defs>
</svg>
