<svg width="18" height="18" viewBox="0 0 18 18" fill="none" xmlns="http://www.w3.org/2000/svg">
<path d="M6.45477 16.9999C6.83133 16.9999 7.13659 16.6801 7.13659 16.2856C7.13659 15.8911 6.83133 15.5713 6.45477 15.5713C6.07821 15.5713 5.77295 15.8911 5.77295 16.2856C5.77295 16.6801 6.07821 16.9999 6.45477 16.9999Z" stroke="#171717" stroke-width="2" stroke-linecap="round" stroke-linejoin="round"/>
<path d="M13.9548 16.9999C14.3313 16.9999 14.6366 16.6801 14.6366 16.2856C14.6366 15.8911 14.3313 15.5713 13.9548 15.5713C13.5782 15.5713 13.2729 15.8911 13.2729 16.2856C13.2729 16.6801 13.5782 16.9999 13.9548 16.9999Z" stroke="#171717" stroke-width="2" stroke-linecap="round" stroke-linejoin="round"/>
<path d="M1 2H3.72727L5.55455 11.5643C5.61689 11.8931 5.78766 12.1885 6.03696 12.3988C6.28626 12.609 6.5982 12.7207 6.91818 12.7143H13.5455C13.8654 12.7207 14.1774 12.609 14.4267 12.3988C14.676 12.1885 14.8467 11.8931 14.9091 11.5643L16 5.57143H4.40909" stroke="#171717" stroke-width="2" stroke-linecap="round" stroke-linejoin="round"/>
</svg>
