<svg width="151" height="121" viewBox="0 0 151 121" fill="none" xmlns="http://www.w3.org/2000/svg">
<path d="M21.1029 55.5813C18.6612 55.5813 16.5103 55 14.6499 53.8373C12.7896 52.6746 11.3169 51.1631 10.2317 49.3028V67.3827H3.83689V24.5956H9.47595V30.0602C10.6386 28.2387 12.1501 26.7853 14.0105 25.7001C15.8708 24.6149 17.9442 24.0723 20.2309 24.0723C22.3237 24.0723 24.2422 24.4987 25.9862 25.3513C27.7302 26.1652 29.2417 27.3085 30.5207 28.7813C31.7997 30.254 32.788 31.9399 33.4856 33.839C34.222 35.6993 34.5901 37.6759 34.5901 39.7687C34.5901 42.6754 34.0088 45.3303 32.8461 47.7332C31.7222 50.1361 30.1331 52.0545 28.0791 53.4885C26.0637 54.8837 23.7383 55.5813 21.1029 55.5813ZM19.01 50.1167C20.3665 50.1167 21.5873 49.826 22.6725 49.2447C23.7965 48.6633 24.746 47.8882 25.5211 46.9193C26.335 45.9504 26.9551 44.8458 27.3814 43.6056C27.8078 42.3654 28.0209 41.0864 28.0209 39.7687C28.0209 38.3735 27.7884 37.0558 27.3233 35.8156C26.8582 34.5753 26.18 33.4902 25.2886 32.56C24.4359 31.6299 23.4283 30.8935 22.2656 30.3509C21.1416 29.8083 19.9014 29.537 18.545 29.537C17.7311 29.537 16.8784 29.692 15.987 30.0021C15.0956 30.3121 14.2624 30.7385 13.4872 31.281C12.7121 31.8236 12.0339 32.4631 11.4525 33.1995C10.8712 33.9359 10.4642 34.711 10.2317 35.5249V43.4893C10.7743 44.7295 11.4913 45.8535 12.3827 46.8611C13.2741 47.8301 14.3011 48.6246 15.4638 49.2447C16.6265 49.826 17.8086 50.1167 19.01 50.1167ZM40.0507 43.1987V24.5956H46.4455V41.9197C46.4455 44.6326 46.93 46.6867 47.8989 48.082C48.9066 49.4384 50.3599 50.1167 52.259 50.1167C53.4604 50.1167 54.6231 49.8648 55.7471 49.3609C56.9098 48.8571 57.9562 48.1207 58.8863 47.1518C59.8553 46.1441 60.6304 44.9427 61.2117 43.5475V24.5956H67.6065V47.7913C67.6065 48.5277 67.7422 49.0509 68.0135 49.3609C68.2848 49.671 68.7305 49.8454 69.3506 49.8841V55C68.6917 55.1163 68.1491 55.1938 67.7228 55.2325C67.2965 55.2713 66.8896 55.2907 66.502 55.2907C65.3393 55.2907 64.3704 54.9806 63.5953 54.3605C62.8201 53.7017 62.3744 52.8684 62.2582 51.8607L62.1419 48.8377C60.7854 51.0468 59.022 52.7327 56.8516 53.8954C54.6813 55.0194 52.2977 55.5813 49.7011 55.5813C46.523 55.5813 44.1201 54.5349 42.4924 52.4421C40.8646 50.3492 40.0507 47.2681 40.0507 43.1987ZM86.5803 55.5813C84.0223 55.5813 81.6 55.1744 79.3134 54.3605C77.0268 53.5079 75.0696 52.2483 73.4418 50.5818L75.8253 46.2798C77.5694 47.8301 79.3134 48.954 81.0575 49.6516C82.8403 50.3492 84.6037 50.698 86.3477 50.698C88.1305 50.698 89.5839 50.3686 90.7078 49.7097C91.8318 49.0121 92.3937 48.0045 92.3937 46.6867C92.3937 45.7178 92.103 45.0008 91.5217 44.5358C90.9404 44.0707 90.0877 43.6637 88.9638 43.3149C87.8786 42.9661 86.5609 42.5786 85.0106 42.1522C82.8403 41.4934 81.0187 40.8151 79.546 40.1175C78.0732 39.3811 76.9687 38.4897 76.2323 37.4433C75.4959 36.3969 75.1277 35.0598 75.1277 33.432C75.1277 31.4555 75.6316 29.7695 76.6392 28.3743C77.6469 26.9791 79.0421 25.9133 80.8249 25.1769C82.6465 24.4405 84.7393 24.0723 87.1035 24.0723C89.3126 24.0723 91.3473 24.4212 93.2076 25.1188C95.1067 25.7776 96.7732 26.8241 98.2072 28.258L95.4749 32.5019C94.1184 31.2617 92.7232 30.3509 91.2892 29.7695C89.8939 29.1882 88.3824 28.8975 86.7547 28.8975C85.8245 28.8975 84.9331 29.0138 84.0805 29.2463C83.2278 29.4401 82.5108 29.8277 81.9295 30.409C81.3869 30.9516 81.1156 31.7267 81.1156 32.7344C81.1156 33.5483 81.3481 34.2072 81.8132 34.711C82.2783 35.2148 82.9759 35.6411 83.9061 35.99C84.8362 36.3388 85.9795 36.7263 87.336 37.1527C89.7001 37.8503 91.7155 38.5479 93.382 39.2455C95.0485 39.9044 96.3275 40.7764 97.2189 41.8616C98.1491 42.908 98.6141 44.3614 98.6141 46.2217C98.6141 49.1672 97.5096 51.4732 95.3005 53.1397C93.1301 54.7675 90.2234 55.5813 86.5803 55.5813ZM131.589 55H125.194V37.9665C125.194 35.2148 124.69 33.1607 123.682 31.8043C122.675 30.4478 121.26 29.7695 119.439 29.7695C118.315 29.7695 117.152 30.0796 115.951 30.6997C114.749 31.3198 113.683 32.1724 112.753 33.2576C111.823 34.3041 111.145 35.5249 110.718 36.9201V55H104.324V12.5617H110.718V30.6997C111.881 28.6456 113.47 27.0372 115.485 25.8745C117.501 24.6731 119.671 24.0723 121.997 24.0723C123.896 24.0723 125.465 24.4018 126.705 25.0606C127.946 25.7195 128.915 26.6303 129.612 27.793C130.349 28.9169 130.852 30.2346 131.124 31.7461C131.434 33.2189 131.589 34.7885 131.589 36.455V55Z" fill="#171717"/>
<path d="M92.1088 108.688L82.3421 94.678L77.3425 99.4451V108.688H70.9477V66.2502H77.3425V92.9921L91.4111 78.3422H98.271L86.4697 91.0737L98.9105 108.688H92.1088ZM102.797 108.688V78.284H109.192V108.688H102.797ZM102.797 73.2845V66.2502H109.192V73.2845H102.797ZM144.142 108.688H137.747V91.655C137.747 88.8258 137.282 86.7523 136.352 85.4346C135.46 84.1169 134.123 83.458 132.34 83.458C131.1 83.458 129.86 83.7681 128.62 84.3882C127.418 85.0083 126.333 85.8609 125.364 86.9461C124.395 87.9925 123.698 89.2134 123.271 90.6086V108.688H116.876V78.284H122.69V84.3882C123.465 83.0317 124.473 81.869 125.713 80.9001C126.992 79.8924 128.426 79.1173 130.015 78.5747C131.604 78.0321 133.29 77.7608 135.073 77.7608C136.894 77.7608 138.386 78.0903 139.549 78.7491C140.75 79.408 141.681 80.3188 142.339 81.4814C143.037 82.6054 143.502 83.9231 143.735 85.4346C144.006 86.9073 144.142 88.477 144.142 90.1435V108.688Z" fill="#171717"/>
<path fill-rule="evenodd" clip-rule="evenodd" d="M32.1543 105.405C31.9971 105.444 32.0168 105.201 31.8543 105.176C31.7968 105.168 31.7457 105.145 31.7042 105.176C31.6628 105.208 31.7042 105.291 31.7042 105.291C31.7042 105.291 31.8505 105.559 31.7042 105.633C31.6067 105.682 31.5153 105.605 31.4042 105.633C31.1556 105.696 31.265 105.932 31.1041 106.089C31.0024 106.189 30.9309 106.236 30.804 106.317C30.6423 106.421 30.5297 106.456 30.3539 106.545L29.9038 106.774C29.7281 106.863 29.6443 106.932 29.4537 107.002C29.2866 107.062 29.1867 107.094 29.0036 107.116C28.83 107.137 28.7272 107.095 28.5535 107.116C28.3705 107.138 28.2598 107.154 28.1034 107.23C27.9636 107.298 27.8923 107.352 27.8034 107.458C27.7039 107.577 27.6763 107.66 27.6533 107.8C27.6388 107.889 27.6009 107.949 27.6533 108.028C27.6904 108.085 27.7448 108.098 27.8034 108.143L27.9534 108.257C27.9534 108.257 28.1256 108.349 28.2535 108.371C28.3679 108.39 28.4364 108.371 28.5535 108.371H28.8536H30.504H31.2541C31.4885 108.371 31.6216 108.392 31.8543 108.371C32.0941 108.349 32.2141 108.275 32.4544 108.257C32.6292 108.243 32.7287 108.257 32.9045 108.257H33.2046H33.6547C33.7719 108.257 33.8403 108.237 33.9547 108.257C34.0826 108.278 34.1269 108.349 34.2548 108.371C34.3692 108.39 34.4377 108.371 34.5549 108.371H34.8549C34.8549 108.371 34.9494 108.385 35.005 108.371C35.0836 108.351 35.0964 108.301 35.155 108.257C35.2136 108.212 35.268 108.199 35.305 108.143C35.3574 108.063 35.305 107.914 35.305 107.914C35.305 107.914 35.3305 107.773 35.305 107.686C35.2766 107.589 35.2136 107.547 35.155 107.458C35.0964 107.369 35.0394 107.326 35.005 107.23C34.9587 107.101 35.005 107.021 35.005 106.888V106.431V106.203V105.747V105.405C35.005 105.226 34.989 105.126 35.005 104.948C35.0994 103.895 35.9507 103.463 36.6553 102.553C37.2572 101.775 37.7461 101.409 38.3057 100.613C38.7014 100.051 38.9669 99.7417 39.2059 99.1302C39.4916 98.3993 39.2454 97.9273 39.506 97.1909C39.9214 96.0166 41.4564 94.453 41.4564 94.453C41.4564 94.453 41.8681 94.7601 42.2066 94.7952C42.2066 94.7952 42.4049 94.8394 42.5066 94.7952C42.6204 94.7458 42.5996 94.6568 42.6567 94.5671C42.8509 94.2616 42.9286 94.0796 43.1068 93.7685C43.3372 93.3662 43.7069 92.7418 43.7069 92.7418L44.007 92.1714C44.007 92.1714 44.3178 91.6244 44.4571 91.2588C44.5243 91.0823 44.5457 90.9801 44.6071 90.8025C44.7155 90.4888 44.7437 90.3035 44.9072 90.0039C45.0076 89.8199 45.0367 89.6989 45.2072 89.5476C45.2612 89.4997 45.2832 89.4617 45.3573 89.4335C45.523 89.3705 45.6244 89.5256 45.8074 89.5476C45.981 89.5684 46.0986 89.4904 46.2575 89.5476C46.4484 89.6163 46.4503 89.7514 46.5575 89.8898C46.6906 90.0615 46.7333 90.1707 46.8576 90.3461C47.1198 90.7161 47.2378 90.9465 47.6078 91.2588C47.7187 91.3524 47.7907 91.3978 47.9078 91.4869C48.0836 91.6206 48.194 91.6871 48.3579 91.8292C48.5512 91.9966 48.6553 92.0954 48.808 92.2855C48.9447 92.4555 48.9751 92.5702 49.1081 92.7418C49.2154 92.8802 49.3009 92.9457 49.4082 93.084L49.4195 93.0986C49.5456 93.2614 49.621 93.3586 49.7082 93.5404C49.791 93.7129 49.7671 93.8266 49.8583 93.9967C49.9077 94.0889 49.884 94.1933 50.0083 94.2248C50.0639 94.2389 50.0997 94.2248 50.1583 94.2248C50.2755 94.2248 50.3472 94.253 50.4584 94.2248C50.6156 94.185 50.7585 93.9967 50.7585 93.9967C50.7585 93.9967 51.1125 94.5575 51.3586 94.9093C51.7409 95.4557 51.9261 95.7799 52.4088 96.2783C52.6802 96.5584 52.8982 96.6768 53.159 96.9627C53.3537 97.1762 53.4499 97.3033 53.6091 97.5331C53.6702 97.6213 53.7177 97.6668 53.7591 97.7613C53.8518 97.9726 53.7199 98.1109 53.7591 98.3317C53.7915 98.5137 53.8556 98.6089 53.9092 98.788C53.9754 99.0095 54.0592 99.3584 54.0592 99.3584C54.0592 99.3584 54.2092 99.7006 54.2092 99.8147C54.2092 99.9288 54.287 100.096 54.3593 100.271C54.4536 100.5 54.6593 100.841 54.6593 100.841C54.6593 100.841 54.9153 101.198 55.1094 101.412C55.3226 101.647 55.4873 101.752 55.7096 101.982C55.9598 102.241 56.1441 102.371 56.3097 102.667C56.3823 102.796 56.3932 102.877 56.4597 103.009C56.6008 103.288 56.7602 103.417 56.9098 103.693C57.0509 103.954 57.2099 104.378 57.2099 104.378L57.3599 104.606L57.66 105.062C57.7186 105.151 57.7756 105.194 57.81 105.291C57.8563 105.419 57.81 105.499 57.81 105.633V106.203V106.888C57.81 106.977 57.8471 107.031 57.81 107.116C57.7576 107.235 57.5989 107.238 57.51 107.344C57.4105 107.463 57.3741 107.546 57.3599 107.686V107.8V108.028V108.143C57.3599 108.143 57.4359 108.228 57.51 108.257C57.6148 108.296 57.6929 108.257 57.81 108.257H58.1101H58.8603H59.7605H60.6607C60.7779 108.257 60.8445 108.246 60.9607 108.257C61.1446 108.274 61.2608 108.371 61.4108 108.371C61.5609 108.371 61.7719 108.458 62.011 108.485C62.3588 108.523 62.5596 108.485 62.9112 108.485C63.0869 108.485 63.2105 108.554 63.3613 108.485C63.4323 108.452 63.4742 108.427 63.5113 108.371C63.5637 108.291 63.5113 108.232 63.5113 108.143C63.5113 108.009 63.5576 107.929 63.5113 107.8C63.4768 107.704 63.3798 107.671 63.3613 107.572C63.353 107.528 63.3798 107.5 63.3613 107.458C63.3198 107.364 63.1755 107.393 63.0612 107.344C62.877 107.265 62.7931 107.197 62.6111 107.116C62.3854 107.015 62.2178 107.01 62.011 106.888C61.8802 106.81 61.8219 106.753 61.7109 106.659C61.5146 106.494 61.4062 106.397 61.2608 106.203C61.1958 106.117 61.1853 106.057 61.1108 105.975C61.0164 105.871 60.905 105.85 60.8107 105.747C60.7361 105.665 60.7533 105.589 60.6607 105.519C60.568 105.448 60.4557 105.473 60.3606 105.405C60.1853 105.278 60.3017 105.118 60.2106 104.948C60.1611 104.856 60.1121 104.812 60.0605 104.72C59.9876 104.591 59.9691 104.512 59.9105 104.378C59.7933 104.111 59.7032 103.966 59.6104 103.693C59.5357 103.473 59.5267 103.345 59.4604 103.123C59.4068 102.944 59.3104 102.667 59.3104 102.667L59.1603 102.096C59.1017 101.874 59.0646 101.749 59.0103 101.526C58.9456 101.259 58.9263 101.108 58.8603 100.841C58.7601 100.438 58.6847 100.214 58.5602 99.8147C58.4489 99.4572 58.3773 99.2585 58.2601 98.9021C58.2015 98.7239 58.1929 98.6183 58.1101 98.4458C58.0203 98.2586 57.9467 98.1595 57.81 97.9895C57.6573 97.7994 57.5172 97.7211 57.3599 97.5331C57.1489 97.281 57.0286 97.1335 56.9098 96.8487C56.7846 96.5484 56.935 96.3356 56.7598 96.0501C56.6359 95.8482 56.4506 95.7891 56.3097 95.5938C56.1315 95.3467 56.14 95.1731 56.0096 94.9093C55.8527 94.5917 55.697 94.4336 55.5595 94.1108C55.3044 93.5113 55.2595 92.5136 55.2595 92.5136C55.2595 92.5136 55.7353 92.4041 56.0096 92.2855C56.2643 92.1754 56.6098 91.9433 56.6098 91.9433C56.6098 91.9433 56.7113 91.8803 56.7598 91.8292C57.0362 91.5379 56.3875 91.3453 56.1597 91.0306C55.591 90.2452 55.3765 89.7632 54.8094 88.9772C54.4179 88.4346 54.1653 88.1446 53.7591 87.6082C53.5234 87.297 53.3949 87.1209 53.159 86.8097C52.582 86.0484 51.6587 84.8703 51.6587 84.8703V83.8436V82.7028L51.5086 81.9043C51.4516 81.6005 51.4804 80.8327 51.5066 80.1346L51.5086 80.079C51.537 79.3206 51.6286 78.898 51.6587 78.1397C51.6587 78.1397 51.6294 76.8878 51.6587 76.0862C51.688 75.2834 51.7501 74.8347 51.8087 74.0328L51.9587 71.9794C51.9587 71.9794 52.1336 70.4492 52.2588 69.4696C52.3157 69.024 52.3601 68.775 52.4088 68.3288C52.5107 67.3954 52.5495 66.8698 52.5589 65.9332C52.5607 65.755 52.5298 65.6537 52.5589 65.4769C52.6048 65.1973 52.7892 65.0691 52.8589 64.7924C52.9581 64.3986 52.8804 64.1663 52.8589 63.7657C52.8326 63.274 52.7675 62.9118 52.7089 62.5108L52.5589 61.4841C52.5003 61.0831 52.2381 60.6574 52.1088 60.1151C52.0349 59.8052 52.0305 59.6268 51.9587 59.3166C51.907 59.0929 51.875 58.9677 51.8087 58.7462C51.7551 58.5671 51.1568 57.3744 51.1032 57.1953C51.0369 56.9738 51.2092 57.8662 51.2086 57.639C51.2076 57.3147 51.0113 57.1619 51.0767 56.8414C51.1575 56.4451 51.3332 56.2881 51.2086 55.8985C51.134 55.6654 51.6613 55.5338 51.5086 55.3238C51.4065 55.1832 51.3995 55.0503 51.2086 54.9816C51.0497 54.9244 50.9342 54.9816 50.7585 54.9816H50.4584C50.4584 54.9816 50.4132 54.8132 50.3084 54.7534C50.1678 54.6732 50.034 54.7534 49.8583 54.7534H49.7082C49.7082 54.7534 49.4412 54.8455 49.2581 54.8675C49.0845 54.8883 48.9776 54.8323 48.808 54.8675C48.6816 54.8937 48.5754 54.8962 48.508 54.9816C48.4126 55.1024 48.5994 55.1902 48.658 55.3238L48.808 55.666C48.808 55.666 49.2072 55.8677 49.2446 56.1335C49.2765 56.3594 49.1919 56.6994 49.2581 56.9209C49.3117 57.1 49.5454 57.3725 49.611 57.5492C49.7118 57.8204 49.7123 58.0309 49.8583 58.2899C49.9615 58.473 49.6349 58.3268 49.7082 58.518C49.8231 58.8174 49.6938 59.0049 49.7082 59.3166C49.731 59.8084 49.8319 60.0798 49.8583 60.5715C49.8797 60.9721 49.8583 61.5982 49.8583 61.5982V62.1686V62.9671C49.8583 62.9671 49.8295 63.3852 49.8583 63.6516C49.8875 63.9217 49.9791 64.066 50.0083 64.3361C50.0371 64.6025 50.0852 64.7597 50.0083 65.0205C49.9049 65.371 49.5582 65.5909 49.4082 65.8191C49.2581 66.0473 49.2941 66.164 49.2581 66.3895C49.2017 66.7433 49.2581 67.3021 49.2581 67.3021C49.2581 67.3021 49.1946 67.6551 49.1081 67.8725C48.9563 68.2539 48.508 68.7852 48.508 68.7852L47.7578 69.4696C47.4648 69.7369 47.5113 69.8985 47.3077 70.1541C47.1983 70.2915 47.2068 70.4429 47.0076 70.4964C46.8971 70.526 46.8093 70.5406 46.7076 70.4964C46.5938 70.4469 46.6062 70.3607 46.5575 70.2682C46.3399 69.8545 46.3723 69.55 46.5575 69.1274C46.6404 68.9384 46.6301 68.7699 46.8576 68.6711C47.0611 68.5827 47.2713 68.7791 47.4577 68.6711C47.6499 68.5598 47.5581 68.3945 47.6078 68.2148C47.6929 67.9065 48.0666 67.6263 47.7578 67.4162C47.6602 67.3498 47.4577 67.3021 47.4577 67.3021C47.4577 67.3021 47.5141 66.7433 47.4577 66.3895C47.4218 66.164 47.3961 66.0361 47.3077 65.8191C47.0816 65.2643 46.7991 64.9739 46.2575 64.5642C45.9915 64.3631 45.8509 64.2225 45.5073 64.1079C45.1809 63.9991 44.9625 64.014 44.6071 63.9938C44.315 63.9773 44.1499 63.9938 43.8569 63.9938C43.6226 63.9938 43.4874 63.962 43.2568 63.9938C43.0745 64.019 42.9377 64.0083 42.8067 64.1079C42.7141 64.1784 42.7153 64.247 42.6567 64.3361L42.5066 64.5642C42.3895 64.7424 42.3396 64.8489 42.2066 65.0205C42.0993 65.1589 41.9065 65.3628 41.9065 65.3628C41.9065 65.3628 41.6932 65.6311 41.6064 65.8191C41.4885 66.0748 41.4564 66.5036 41.4564 66.5036V66.8458V67.4162C41.4564 67.5683 41.3276 67.9002 41.3064 68.2148C41.2944 68.3927 41.1764 68.5228 41.3064 68.6711C41.3523 68.7235 41.3853 68.7527 41.4564 68.7852C41.6071 68.8539 41.7558 68.7164 41.9065 68.7852C41.9776 68.8176 42.0064 68.8491 42.0565 68.8992C42.2027 69.0455 42.1063 69.1884 42.2066 69.3556C42.2943 69.5017 42.4192 69.5516 42.5066 69.6978C42.6303 69.9046 42.5981 70.0454 42.6567 70.2682C42.7153 70.4909 42.7849 70.612 42.8067 70.8386C42.8195 70.9719 42.8623 71.054 42.8067 71.1808C42.7281 71.3601 42.5724 71.4293 42.3566 71.5231C42.1957 71.593 42.0849 71.599 41.9065 71.6371C41.6189 71.6986 41.4418 71.6842 41.1563 71.7512C40.58 71.8866 40.3824 72.1862 39.806 72.3216C39.5206 72.3887 39.3259 72.3385 39.0559 72.4357C38.6814 72.5706 38.5687 72.7627 38.3057 73.0061C38.0375 73.2543 37.9077 73.4085 37.7056 73.6906C37.492 73.9885 37.4312 74.1773 37.2555 74.4891C37.0797 74.801 36.9441 74.9652 36.8054 75.2877C36.8054 75.2877 36.6423 75.9862 36.5053 76.4285C36.4499 76.6073 36.485 76.7298 36.3553 76.8848C36.2663 76.9911 36.0877 76.9894 36.0552 77.1129C36.0437 77.1566 36.0552 77.227 36.0552 77.227C36.0552 77.3183 36.3553 77.4172 36.5053 77.4552C36.6553 77.4932 36.8054 77.4552 36.8054 77.4552V77.5693L36.6553 78.1397L36.5053 78.8241L36.3553 79.6227L36.2052 80.079V80.4212V80.9916V81.3339L36.3553 81.6761L36.6553 82.2465L37.4055 83.1591L37.8556 83.7295V84.5281C37.8556 84.5281 37.8232 84.739 37.8556 84.8703C37.9039 85.0662 37.9948 85.1694 38.1557 85.3267C38.2574 85.4261 38.4557 85.5548 38.4557 85.5548C38.4557 85.5548 38.6294 85.6427 38.7558 85.6689C38.9254 85.7041 39.0301 85.6689 39.2059 85.6689H39.506C39.506 85.6689 39.6004 85.683 39.656 85.6689C39.7346 85.649 39.769 85.6112 39.806 85.5548C39.8584 85.4751 39.806 85.3267 39.806 85.3267H40.1061V85.5548C40.1061 85.5548 40.0389 85.8386 39.9561 86.0111C39.8663 86.1983 39.656 86.4674 39.656 86.4674C39.656 86.4674 39.5771 86.612 39.506 86.6956C39.3709 86.8543 39.2316 86.9042 39.0559 87.0378C38.9387 87.1269 38.8448 87.1597 38.7558 87.266C38.6563 87.3849 38.6644 87.4746 38.6058 87.6082C38.5472 87.7419 38.5059 87.8149 38.4557 87.9505C38.3748 88.1692 38.3643 88.2981 38.3057 88.5209C38.2471 88.7436 38.2401 88.8734 38.1557 89.0913C38.0665 89.3214 37.9757 89.4398 37.8556 89.6617C37.6857 89.9754 37.5754 90.1465 37.4055 90.4602C37.2854 90.6821 37.2147 90.8055 37.1054 91.0306C36.9772 91.295 36.8981 91.4423 36.8054 91.7151C36.7306 91.935 36.7216 92.064 36.6553 92.2855C36.6017 92.4646 36.5964 92.5717 36.5053 92.7418C36.4567 92.8324 36.4206 92.8814 36.3586 92.9654L36.3553 92.97C36.2519 93.1101 36.0814 93.1528 36.0552 93.3122V93.4263C36.0552 93.4263 36.3277 93.5003 36.5053 93.5404C36.7369 93.5926 37.1054 93.6544 37.1054 93.6544L36.6553 94.6812C36.6553 94.6812 36.1458 95.2745 36.0552 95.7079C36 95.9719 36.1061 96.1279 36.0552 96.3923C36.0202 96.5741 35.9768 96.6732 35.9052 96.8487C35.7728 97.1727 35.6332 97.3361 35.4551 97.6472C35.2247 98.0495 35.0592 98.2636 34.8549 98.6739C34.553 99.2806 34.4499 99.6396 34.2548 100.271C34.1182 100.713 34.1165 100.974 33.9547 101.412C33.8544 101.683 33.7719 101.829 33.6547 102.096C33.5375 102.364 33.4773 102.515 33.3546 102.781C33.3546 102.781 33.0262 103.324 32.9045 103.693C32.8178 103.956 32.8399 104.115 32.7545 104.378C32.6657 104.651 32.4544 105.062 32.4544 105.062C32.4544 105.062 32.3848 105.212 32.3044 105.291C32.2535 105.34 32.2329 105.385 32.1543 105.405ZM39.506 78.0256L39.2059 77.6833L39.0559 77.9115L38.9058 78.0256L38.7558 78.2537L38.4557 78.596L38.1557 79.0523L38.0056 79.6227V79.9649V80.6494L38.1557 81.1057L38.3057 81.562V82.2465V82.8169L38.7558 83.0451H39.2059V82.8169L39.0559 82.1324V81.3339L39.2059 80.079L39.506 78.596V78.0256ZM39.2059 83.6155C39.1503 83.6014 39.1083 83.5955 39.0559 83.6155C38.9511 83.6553 39.0304 83.7566 39.0559 83.8436C39.0843 83.9409 39.2059 84.0718 39.2059 84.0718C39.2059 84.0718 39.3004 84.0577 39.3559 84.0718C39.4345 84.0917 39.4274 84.1659 39.506 84.1859C39.5616 84.1999 39.6146 84.2174 39.656 84.1859C39.6974 84.1544 39.6745 84.114 39.656 84.0718C39.6298 84.012 39.506 83.9577 39.506 83.9577C39.506 83.9577 39.4068 83.8934 39.3559 83.8436C39.2755 83.765 39.3302 83.647 39.2059 83.6155Z" fill="#171717"/>
<path d="M30.3539 106.545C30.5297 106.456 30.6423 106.421 30.804 106.317C30.9309 106.236 31.0024 106.189 31.1041 106.089C31.265 105.932 31.1556 105.696 31.4042 105.633C31.5153 105.605 31.6067 105.682 31.7042 105.633C31.8505 105.559 31.7042 105.291 31.7042 105.291C31.7042 105.291 31.6628 105.208 31.7042 105.176C31.7457 105.145 31.7968 105.168 31.8543 105.176C32.0168 105.201 31.9971 105.444 32.1543 105.405C32.2329 105.385 32.2535 105.34 32.3044 105.291C32.3848 105.212 32.4544 105.062 32.4544 105.062C32.4544 105.062 32.6657 104.651 32.7545 104.378C32.8399 104.115 32.8178 103.956 32.9045 103.693C33.0262 103.324 33.3546 102.781 33.3546 102.781C33.4773 102.515 33.5375 102.364 33.6547 102.096C33.7719 101.829 33.8544 101.683 33.9547 101.412C34.1165 100.974 34.1182 100.713 34.2548 100.271C34.4499 99.6396 34.553 99.2806 34.8549 98.6739C35.0592 98.2636 35.2247 98.0495 35.4551 97.6472C35.6332 97.3361 35.7728 97.1727 35.9052 96.8487C35.9768 96.6732 36.0202 96.5741 36.0552 96.3923C36.1061 96.1279 36 95.9719 36.0552 95.7079C36.1458 95.2745 36.6553 94.6812 36.6553 94.6812L37.1054 93.6544C37.1054 93.6544 36.7369 93.5926 36.5053 93.5404C36.3277 93.5003 36.0552 93.4263 36.0552 93.4263V93.3122C36.0814 93.1528 36.2519 93.1101 36.3553 92.97M30.3539 106.545C30.1782 106.634 30.0796 106.684 29.9038 106.774M30.3539 106.545L29.9038 106.774M29.9038 106.774C29.7281 106.863 29.6443 106.932 29.4537 107.002C29.2866 107.062 29.1867 107.094 29.0036 107.116C28.83 107.137 28.7272 107.095 28.5535 107.116C28.3705 107.138 28.2598 107.154 28.1034 107.23C27.9636 107.298 27.8923 107.352 27.8034 107.458C27.7039 107.577 27.6763 107.66 27.6533 107.8C27.6388 107.889 27.6009 107.949 27.6533 108.028C27.6904 108.085 27.7448 108.098 27.8034 108.143L27.9534 108.257C27.9534 108.257 28.1256 108.349 28.2535 108.371C28.3679 108.39 28.4364 108.371 28.5535 108.371M28.5535 108.371C28.6707 108.371 28.7364 108.371 28.8536 108.371M28.5535 108.371H28.8536M28.8536 108.371C29.4981 108.371 29.8595 108.371 30.504 108.371M28.8536 108.371H30.504M30.504 108.371C30.7969 108.371 30.9612 108.371 31.2541 108.371M30.504 108.371H31.2541M31.2541 108.371C31.4885 108.371 31.6216 108.392 31.8543 108.371C32.0941 108.349 32.2141 108.275 32.4544 108.257C32.6292 108.243 32.7287 108.257 32.9045 108.257M32.9045 108.257C33.0217 108.257 33.0874 108.257 33.2046 108.257M32.9045 108.257H33.2046M33.2046 108.257C33.3803 108.257 33.4789 108.257 33.6547 108.257M33.2046 108.257H33.6547M33.6547 108.257C33.7719 108.257 33.8403 108.237 33.9547 108.257C34.0826 108.278 34.1269 108.349 34.2548 108.371C34.3692 108.39 34.4377 108.371 34.5549 108.371M34.5549 108.371C34.6721 108.371 34.7378 108.371 34.8549 108.371M34.5549 108.371H34.8549M34.8549 108.371C34.8549 108.371 34.9494 108.385 35.005 108.371C35.0836 108.351 35.0964 108.301 35.155 108.257C35.2136 108.212 35.268 108.199 35.305 108.143C35.3574 108.063 35.305 107.914 35.305 107.914C35.305 107.914 35.3305 107.773 35.305 107.686C35.2766 107.589 35.2136 107.547 35.155 107.458C35.0964 107.369 35.0394 107.326 35.005 107.23C34.9587 107.101 35.005 107.021 35.005 106.888M35.005 106.888C35.005 106.709 35.005 106.61 35.005 106.431M35.005 106.888V106.431M35.005 106.431C35.005 106.342 35.005 106.292 35.005 106.203M35.005 106.431V106.203M35.005 106.203C35.005 106.025 35.005 105.925 35.005 105.747M35.005 106.203V105.747M35.005 105.747C35.005 105.613 35.005 105.538 35.005 105.405M35.005 105.747V105.405M35.005 105.405C35.005 105.226 34.989 105.126 35.005 104.948C35.0994 103.895 35.9507 103.463 36.6553 102.553C37.2572 101.775 37.7461 101.409 38.3057 100.613C38.7014 100.051 38.9669 99.7417 39.2059 99.1302C39.4916 98.3993 39.2454 97.9273 39.506 97.1909C39.9214 96.0166 41.4564 94.453 41.4564 94.453C41.4564 94.453 41.8681 94.7601 42.2066 94.7952C42.2066 94.7952 42.4049 94.8394 42.5066 94.7952C42.6204 94.7458 42.5996 94.6568 42.6567 94.5671C42.8509 94.2616 42.9286 94.0796 43.1068 93.7685C43.3372 93.3662 43.7069 92.7418 43.7069 92.7418L44.007 92.1714C44.007 92.1714 44.3178 91.6244 44.4571 91.2588C44.5243 91.0823 44.5457 90.9801 44.6071 90.8025C44.7155 90.4888 44.7437 90.3035 44.9072 90.0039C45.0076 89.8199 45.0367 89.6989 45.2072 89.5476C45.2612 89.4997 45.2832 89.4617 45.3573 89.4335C45.523 89.3705 45.6244 89.5256 45.8074 89.5476C45.981 89.5684 46.0986 89.4904 46.2575 89.5476C46.4484 89.6163 46.4503 89.7514 46.5575 89.8898C46.6906 90.0615 46.7333 90.1707 46.8576 90.3461C47.1198 90.7161 47.2378 90.9465 47.6078 91.2588C47.7187 91.3524 47.7907 91.3978 47.9078 91.4869C48.0836 91.6206 48.194 91.6871 48.3579 91.8292C48.5512 91.9966 48.6553 92.0954 48.808 92.2855C48.9447 92.4555 48.9751 92.5702 49.1081 92.7418C49.2154 92.8802 49.3009 92.9457 49.4082 93.084M49.4082 93.084L49.4195 93.0986M49.4082 93.084C49.412 93.089 49.4158 93.0938 49.4195 93.0986M57.3599 104.606L57.2099 104.378C57.2099 104.378 57.0509 103.954 56.9098 103.693C56.7602 103.417 56.6008 103.288 56.4597 103.009C56.3932 102.877 56.3823 102.796 56.3097 102.667C56.1441 102.371 55.9598 102.241 55.7096 101.982C55.4873 101.752 55.3226 101.647 55.1094 101.412C54.9153 101.198 54.6593 100.841 54.6593 100.841C54.6593 100.841 54.4536 100.5 54.3593 100.271C54.287 100.096 54.2092 99.9288 54.2092 99.8147C54.2092 99.7006 54.0592 99.3584 54.0592 99.3584C54.0592 99.3584 53.9754 99.0095 53.9092 98.788C53.8556 98.6089 53.7915 98.5137 53.7591 98.3317C53.7199 98.1109 53.8518 97.9726 53.7591 97.7613C53.7177 97.6668 53.6702 97.6213 53.6091 97.5331C53.4499 97.3033 53.3537 97.1762 53.159 96.9627C52.8982 96.6768 52.6802 96.5584 52.4088 96.2783C51.9261 95.7799 51.7409 95.4557 51.3586 94.9093C51.1125 94.5575 50.7585 93.9967 50.7585 93.9967C50.7585 93.9967 50.6156 94.185 50.4584 94.2248C50.3472 94.253 50.2755 94.2248 50.1583 94.2248C50.0997 94.2248 50.0639 94.2389 50.0083 94.2248C49.884 94.1933 49.9077 94.0889 49.8583 93.9967C49.7671 93.8266 49.791 93.7129 49.7082 93.5404C49.621 93.3586 49.5456 93.2614 49.4195 93.0986M57.3599 104.606C57.3599 104.606 57.5428 104.884 57.66 105.062M57.3599 104.606L57.66 105.062M57.66 105.062C57.7186 105.151 57.7756 105.194 57.81 105.291C57.8563 105.419 57.81 105.499 57.81 105.633M57.81 105.633C57.81 105.856 57.81 105.98 57.81 106.203M57.81 105.633V106.203M57.81 106.203C57.81 106.47 57.81 106.62 57.81 106.888M57.81 106.203V106.888M57.81 106.888C57.81 106.977 57.8471 107.031 57.81 107.116C57.7576 107.235 57.5989 107.238 57.51 107.344C57.4105 107.463 57.3741 107.546 57.3599 107.686V107.8M57.3599 107.8C57.3599 107.8 57.3599 107.939 57.3599 108.028M57.3599 107.8V108.028M57.3599 108.028V108.143C57.3599 108.143 57.4359 108.228 57.51 108.257C57.6148 108.296 57.6929 108.257 57.81 108.257M57.81 108.257C57.9272 108.257 57.9929 108.257 58.1101 108.257M57.81 108.257H58.1101M58.1101 108.257C58.4031 108.257 58.5673 108.257 58.8603 108.257M58.1101 108.257H58.8603M58.8603 108.257C59.2118 108.257 59.4089 108.257 59.7605 108.257M58.8603 108.257H59.7605M59.7605 108.257C60.112 108.257 60.3091 108.257 60.6607 108.257M59.7605 108.257H60.6607M60.6607 108.257C60.7779 108.257 60.8445 108.246 60.9607 108.257C61.1446 108.274 61.2608 108.371 61.4108 108.371C61.5609 108.371 61.7719 108.458 62.011 108.485C62.3588 108.523 62.5596 108.485 62.9112 108.485C63.0869 108.485 63.2105 108.554 63.3613 108.485C63.4323 108.452 63.4742 108.427 63.5113 108.371C63.5637 108.291 63.5113 108.232 63.5113 108.143C63.5113 108.009 63.5576 107.929 63.5113 107.8C63.4768 107.704 63.3798 107.671 63.3613 107.572C63.353 107.528 63.3798 107.5 63.3613 107.458C63.3198 107.364 63.1755 107.393 63.0612 107.344C62.877 107.265 62.7931 107.197 62.6111 107.116C62.3854 107.015 62.2178 107.01 62.011 106.888C61.8802 106.81 61.8219 106.753 61.7109 106.659C61.5146 106.494 61.4062 106.397 61.2608 106.203C61.1958 106.117 61.1853 106.057 61.1108 105.975C61.0164 105.871 60.905 105.85 60.8107 105.747C60.7361 105.665 60.7533 105.589 60.6607 105.519C60.568 105.448 60.4557 105.473 60.3606 105.405C60.1853 105.278 60.3017 105.118 60.2106 104.948C60.1611 104.856 60.1121 104.812 60.0605 104.72C59.9876 104.591 59.9691 104.512 59.9105 104.378C59.7933 104.111 59.7032 103.966 59.6104 103.693C59.5357 103.473 59.5267 103.345 59.4604 103.123C59.4068 102.944 59.3104 102.667 59.3104 102.667M59.3104 102.667C59.3104 102.667 59.2189 102.319 59.1603 102.096M59.3104 102.667L59.1603 102.096M59.1603 102.096C59.1017 101.874 59.0646 101.749 59.0103 101.526C58.9456 101.259 58.9263 101.108 58.8603 100.841C58.7601 100.438 58.6847 100.214 58.5602 99.8147C58.4489 99.4572 58.3773 99.2585 58.2601 98.9021C58.2015 98.7239 58.1929 98.6183 58.1101 98.4458C58.0203 98.2586 57.9467 98.1595 57.81 97.9895C57.6573 97.7994 57.5172 97.7211 57.3599 97.5331C57.1489 97.281 57.0286 97.1335 56.9098 96.8487C56.7846 96.5484 56.935 96.3356 56.7598 96.0501C56.6359 95.8482 56.4506 95.7891 56.3097 95.5938C56.1315 95.3467 56.14 95.1731 56.0096 94.9093C55.8527 94.5917 55.697 94.4336 55.5595 94.1108C55.3044 93.5113 55.2595 92.5136 55.2595 92.5136C55.2595 92.5136 55.7353 92.4041 56.0096 92.2855C56.2643 92.1754 56.6098 91.9433 56.6098 91.9433C56.6098 91.9433 56.7113 91.8803 56.7598 91.8292C57.0362 91.5379 56.3875 91.3453 56.1597 91.0306C55.591 90.2452 55.3765 89.7632 54.8094 88.9772C54.4179 88.4346 54.1653 88.1446 53.7591 87.6082C53.5234 87.297 53.3949 87.1209 53.159 86.8097C52.582 86.0484 51.6587 84.8703 51.6587 84.8703V83.8436V82.7028M51.6587 82.7028C51.6001 82.391 51.5672 82.2161 51.5086 81.9043M51.6587 82.7028L51.5086 81.9043M51.5086 81.9043C51.4516 81.6005 51.4804 80.8327 51.5066 80.1346M51.5086 80.079C51.537 79.3206 51.6286 78.898 51.6587 78.1397C51.6587 78.1397 51.6294 76.8878 51.6587 76.0862C51.688 75.2834 51.7501 74.8347 51.8087 74.0328M51.5086 80.079L51.5066 80.1346M51.5086 80.079C51.5079 80.0975 51.5072 80.116 51.5066 80.1346M51.8087 74.0328C51.8673 73.2309 51.9587 71.9794 51.9587 71.9794M51.8087 74.0328L51.9587 71.9794M51.9587 71.9794C51.9587 71.9794 52.1336 70.4492 52.2588 69.4696C52.3157 69.024 52.3601 68.775 52.4088 68.3288C52.5107 67.3954 52.5495 66.8698 52.5589 65.9332C52.5607 65.755 52.5298 65.6537 52.5589 65.4769C52.6048 65.1973 52.7892 65.0691 52.8589 64.7924C52.9581 64.3986 52.8804 64.1663 52.8589 63.7657C52.8326 63.274 52.7675 62.9118 52.7089 62.5108M52.7089 62.5108C52.6503 62.1098 52.6175 61.885 52.5589 61.4841M52.7089 62.5108L52.5589 61.4841M52.5589 61.4841C52.5003 61.0831 52.2381 60.6574 52.1088 60.1151C52.0349 59.8052 52.0305 59.6268 51.9587 59.3166C51.907 59.0929 51.875 58.9677 51.8087 58.7462C51.7551 58.5671 51.1568 57.3744 51.1032 57.1953C51.0369 56.9738 51.2092 57.8662 51.2086 57.639C51.2076 57.3147 51.0113 57.1619 51.0767 56.8414C51.1575 56.4451 51.3332 56.2881 51.2086 55.8985C51.134 55.6654 51.6613 55.5338 51.5086 55.3238C51.4065 55.1832 51.3995 55.0503 51.2086 54.9816C51.0497 54.9244 50.9342 54.9816 50.7585 54.9816H50.4584C50.4584 54.9816 50.4132 54.8132 50.3084 54.7534C50.1678 54.6732 50.034 54.7534 49.8583 54.7534H49.7082C49.7082 54.7534 49.4412 54.8455 49.2581 54.8675C49.0845 54.8883 48.9776 54.8323 48.808 54.8675C48.6816 54.8937 48.5754 54.8962 48.508 54.9816C48.4126 55.1024 48.5994 55.1902 48.658 55.3238M48.658 55.3238C48.7166 55.4575 48.808 55.666 48.808 55.666M48.658 55.3238L48.808 55.666M48.808 55.666C48.808 55.666 49.2072 55.8677 49.2446 56.1335C49.2765 56.3594 49.1919 56.6994 49.2581 56.9209C49.3117 57.1 49.5454 57.3725 49.611 57.5492C49.7118 57.8204 49.7123 58.0309 49.8583 58.2899C49.9615 58.473 49.6349 58.3268 49.7082 58.518C49.8231 58.8174 49.6938 59.0049 49.7082 59.3166C49.731 59.8084 49.8319 60.0798 49.8583 60.5715C49.8797 60.9721 49.8583 61.5982 49.8583 61.5982M49.8583 61.5982C49.8583 61.5982 49.8583 61.9458 49.8583 62.1686M49.8583 61.5982V62.1686M49.8583 62.1686C49.8583 62.4804 49.8583 62.9671 49.8583 62.9671M49.8583 62.1686V62.9671M49.8583 62.9671C49.8583 62.9671 49.8295 63.3852 49.8583 63.6516C49.8875 63.9217 49.9791 64.066 50.0083 64.3361C50.0371 64.6025 50.0852 64.7597 50.0083 65.0205C49.9049 65.371 49.5582 65.5909 49.4082 65.8191C49.2581 66.0473 49.2941 66.164 49.2581 66.3895C49.2017 66.7433 49.2581 67.3021 49.2581 67.3021C49.2581 67.3021 49.1946 67.6551 49.1081 67.8725C48.9563 68.2539 48.508 68.7852 48.508 68.7852M48.508 68.7852C48.215 69.0525 48.0508 69.2023 47.7578 69.4696M48.508 68.7852L47.7578 69.4696M47.7578 69.4696C47.4648 69.7369 47.5113 69.8985 47.3077 70.1541C47.1983 70.2915 47.2068 70.4429 47.0076 70.4964C46.8971 70.526 46.8093 70.5406 46.7076 70.4964C46.5938 70.4469 46.6062 70.3607 46.5575 70.2682C46.3399 69.8545 46.3723 69.55 46.5575 69.1274C46.6404 68.9384 46.6301 68.7699 46.8576 68.6711C47.0611 68.5827 47.2713 68.7791 47.4577 68.6711C47.6499 68.5598 47.5581 68.3945 47.6078 68.2148C47.6929 67.9065 48.0666 67.6263 47.7578 67.4162C47.6602 67.3498 47.4577 67.3021 47.4577 67.3021C47.4577 67.3021 47.5141 66.7433 47.4577 66.3895C47.4218 66.164 47.3961 66.0361 47.3077 65.8191C47.0816 65.2643 46.7991 64.9739 46.2575 64.5642C45.9915 64.3631 45.8509 64.2225 45.5073 64.1079C45.1809 63.9991 44.9625 64.014 44.6071 63.9938C44.315 63.9773 44.1499 63.9938 43.8569 63.9938C43.6226 63.9938 43.4874 63.962 43.2568 63.9938C43.0745 64.019 42.9377 64.0083 42.8067 64.1079C42.7141 64.1784 42.7153 64.247 42.6567 64.3361M42.6567 64.3361C42.6567 64.3361 42.5652 64.4751 42.5066 64.5642M42.6567 64.3361L42.5066 64.5642M42.5066 64.5642C42.3895 64.7424 42.3396 64.8489 42.2066 65.0205C42.0993 65.1589 41.9065 65.3628 41.9065 65.3628C41.9065 65.3628 41.6932 65.6311 41.6064 65.8191C41.4885 66.0748 41.4564 66.5036 41.4564 66.5036M41.4564 66.5036C41.4564 66.5796 41.4564 66.8458 41.4564 66.8458M41.4564 66.5036V66.8458M41.4564 66.8458C41.4564 66.8458 41.4564 67.2641 41.4564 67.4162M41.4564 66.8458V67.4162M41.4564 67.4162C41.4564 67.5683 41.3276 67.9002 41.3064 68.2148C41.2944 68.3927 41.1764 68.5228 41.3064 68.6711C41.3523 68.7235 41.3853 68.7527 41.4564 68.7852C41.6071 68.8539 41.7558 68.7164 41.9065 68.7852C41.9776 68.8176 42.0064 68.8491 42.0565 68.8992C42.2027 69.0455 42.1063 69.1884 42.2066 69.3556C42.2943 69.5017 42.4192 69.5516 42.5066 69.6978C42.6303 69.9046 42.5981 70.0454 42.6567 70.2682C42.7153 70.4909 42.7849 70.612 42.8067 70.8386C42.8195 70.9719 42.8623 71.054 42.8067 71.1808C42.7281 71.3601 42.5724 71.4293 42.3566 71.5231C42.1957 71.593 42.0849 71.599 41.9065 71.6371C41.6189 71.6986 41.4418 71.6842 41.1563 71.7512C40.58 71.8866 40.3824 72.1862 39.806 72.3216C39.5206 72.3887 39.3259 72.3385 39.0559 72.4357C38.6814 72.5706 38.5687 72.7627 38.3057 73.0061C38.0375 73.2543 37.9077 73.4085 37.7056 73.6906C37.492 73.9885 37.4312 74.1773 37.2555 74.4891C37.0797 74.801 36.9441 74.9652 36.8054 75.2877C36.8054 75.2877 36.6423 75.9862 36.5053 76.4285C36.4499 76.6073 36.485 76.7298 36.3553 76.8848C36.2663 76.9911 36.0877 76.9894 36.0552 77.1129C36.0437 77.1566 36.0552 77.227 36.0552 77.227C36.0552 77.3183 36.3553 77.4172 36.5053 77.4552C36.6553 77.4932 36.8054 77.4552 36.8054 77.4552V77.5693L36.6553 78.1397L36.5053 78.8241L36.3553 79.6227L36.2052 80.079V80.4212V80.9916V81.3339L36.3553 81.6761L36.6553 82.2465L37.4055 83.1591L37.8556 83.7295V84.5281C37.8556 84.5281 37.8232 84.739 37.8556 84.8703C37.9039 85.0662 37.9948 85.1694 38.1557 85.3267C38.2574 85.4261 38.4557 85.5548 38.4557 85.5548C38.4557 85.5548 38.6294 85.6427 38.7558 85.6689C38.9254 85.7041 39.0301 85.6689 39.2059 85.6689M39.2059 85.6689C39.3231 85.6689 39.3888 85.6689 39.506 85.6689M39.2059 85.6689H39.506M39.506 85.6689C39.506 85.6689 39.6004 85.683 39.656 85.6689C39.7346 85.649 39.769 85.6112 39.806 85.5548C39.8584 85.4751 39.806 85.3267 39.806 85.3267H40.1061V85.5548C40.1061 85.5548 40.0389 85.8386 39.9561 86.0111C39.8663 86.1983 39.656 86.4674 39.656 86.4674C39.656 86.4674 39.5771 86.612 39.506 86.6956C39.3709 86.8543 39.2316 86.9042 39.0559 87.0378C38.9387 87.1269 38.8448 87.1597 38.7558 87.266C38.6563 87.3849 38.6644 87.4746 38.6058 87.6082C38.5472 87.7419 38.5059 87.8149 38.4557 87.9505C38.3748 88.1692 38.3643 88.2981 38.3057 88.5209C38.2471 88.7436 38.2401 88.8734 38.1557 89.0913C38.0665 89.3214 37.9757 89.4398 37.8556 89.6617C37.6857 89.9754 37.5754 90.1465 37.4055 90.4602C37.2854 90.6821 37.2147 90.8055 37.1054 91.0306C36.9772 91.295 36.8981 91.4423 36.8054 91.7151C36.7306 91.935 36.7216 92.064 36.6553 92.2855C36.6017 92.4646 36.5964 92.5717 36.5053 92.7418C36.4567 92.8324 36.4206 92.8814 36.3586 92.9654M36.3553 92.97L36.3586 92.9654M36.3553 92.97C36.3564 92.9684 36.3575 92.9669 36.3586 92.9654M39.2059 77.6833L39.506 78.0256V78.596L39.2059 80.079L39.0559 81.3339V82.1324L39.2059 82.8169V83.0451H38.7558L38.3057 82.8169V82.2465V81.562L38.1557 81.1057L38.0056 80.6494V79.9649V79.6227L38.1557 79.0523L38.4557 78.596L38.7558 78.2537L38.9058 78.0256L39.0559 77.9115L39.2059 77.6833ZM39.0559 83.6155C39.1083 83.5955 39.1503 83.6014 39.2059 83.6155C39.3302 83.647 39.2755 83.765 39.3559 83.8436C39.4068 83.8934 39.506 83.9577 39.506 83.9577C39.506 83.9577 39.6298 84.012 39.656 84.0718C39.6745 84.114 39.6974 84.1544 39.656 84.1859C39.6146 84.2174 39.5616 84.1999 39.506 84.1859C39.4274 84.1659 39.4345 84.0917 39.3559 84.0718C39.3004 84.0577 39.2059 84.0718 39.2059 84.0718C39.2059 84.0718 39.0843 83.9409 39.0559 83.8436C39.0304 83.7566 38.9511 83.6553 39.0559 83.6155Z" stroke="#171717" stroke-width="2.11224"/>
<path d="M49.7018 57.186C49.7018 57.186 49.2865 56.5813 49.3299 56.2606C49.3797 55.8915 49.1934 55.4655 48.8902 55.1529C48.7677 55.0266 48.6572 54.9738 48.4771 54.8818C48.1924 54.7365 47.9617 54.7309 47.6509 54.6108C47.4003 54.5139 47.3158 54.5145 47.0312 54.4752C46.8734 54.4534 46.7703 54.3749 46.6181 54.3397C46.3439 54.2762 46.3473 54.0995 46.205 53.9331C46.1168 53.8298 45.9985 53.662 45.9985 53.662C45.9985 53.662 45.9624 53.5738 45.9985 53.5265C46.0706 53.4318 46.4116 53.5265 46.4116 53.5265L46.8247 53.662L47.4443 53.9331H48.6837H49.3033H49.7164H50.3361H50.9558L51.3689 53.7975L51.5754 53.662C51.5754 53.662 51.6738 53.5501 51.782 53.5265C51.8585 53.5097 51.9886 53.5265 51.9886 53.5265C51.9886 53.5265 52.1186 53.5097 52.1951 53.5265C52.3662 53.5639 52.2574 53.7265 52.4017 53.7975C52.5953 53.8928 52.8138 53.7158 53.0213 53.7975C53.1192 53.836 53.1301 53.8946 53.2279 53.9331C53.4354 54.0148 53.6056 53.9331 53.8476 53.9331H54.4672C54.6286 53.9331 54.7663 53.8582 54.8803 53.9331C55.0417 54.0389 54.4672 54.2042 54.4672 54.2042L54.0541 54.3397H53.641L53.0213 54.4752C53.0213 54.4752 52.6361 54.5448 52.4017 54.6108C52.2359 54.6574 52.1309 54.6736 51.9886 54.7463C51.8985 54.7923 51.852 54.8228 51.782 54.8818C51.6713 54.9753 51.6146 55.0374 51.5754 55.1529C51.5404 55.2563 51.5883 55.3185 51.5754 55.424C51.5489 55.6415 51.4031 55.7491 51.3689 55.9662C51.344 56.1241 51.3689 56.3728 51.3689 56.3728V56.9149V57.186H51.1623H49.7018Z" fill="#171717"/>
<path d="M53.8476 53.9331C53.6056 53.9331 53.4354 54.0148 53.2279 53.9331C53.1301 53.8946 53.1192 53.836 53.0213 53.7975C52.8138 53.7158 52.5953 53.8928 52.4017 53.7975C52.2574 53.7265 52.3662 53.5639 52.1951 53.5265C52.1186 53.5097 51.9886 53.5265 51.9886 53.5265C51.9886 53.5265 51.8585 53.5097 51.782 53.5265C51.6738 53.5501 51.5754 53.662 51.5754 53.662L51.3689 53.7975L50.9558 53.9331H50.3361H49.7164H49.3033H48.6837H47.4443L46.8247 53.662L46.4116 53.5265C46.4116 53.5265 46.0706 53.4318 45.9985 53.5265C45.9624 53.5738 45.9985 53.662 45.9985 53.662C45.9985 53.662 46.1168 53.8298 46.205 53.9331C46.3473 54.0995 46.3439 54.2762 46.6181 54.3397C46.7703 54.3749 46.8734 54.4534 47.0312 54.4752C47.3158 54.5145 47.4003 54.5139 47.6509 54.6108C47.9617 54.7309 48.1924 54.7365 48.4771 54.8818C48.6572 54.9738 48.7677 55.0266 48.8902 55.1529C49.1934 55.4655 49.3797 55.8915 49.3299 56.2606C49.2865 56.5813 49.7018 57.186 49.7018 57.186H51.1623H51.3689M53.8476 53.9331C54.0895 53.9331 54.2252 53.9331 54.4672 53.9331M53.8476 53.9331H54.4672M54.4672 53.9331C54.6286 53.9331 54.7663 53.8582 54.8803 53.9331C55.0417 54.0389 54.4672 54.2042 54.4672 54.2042L54.0541 54.3397H53.641L53.0213 54.4752C53.0213 54.4752 52.6361 54.5448 52.4017 54.6108C52.2359 54.6574 52.1309 54.6736 51.9886 54.7463C51.8985 54.7923 51.852 54.8228 51.782 54.8818C51.6713 54.9753 51.6146 55.0374 51.5754 55.1529C51.5404 55.2563 51.5883 55.3185 51.5754 55.424C51.5489 55.6415 51.4031 55.7491 51.3689 55.9662C51.344 56.1241 51.3689 56.3728 51.3689 56.3728M51.3689 56.3728C51.3689 56.3728 51.3689 56.7032 51.3689 56.9149M51.3689 56.3728V56.9149M51.3689 56.9149C51.3689 57.0208 51.3689 57.186 51.3689 57.186M51.3689 56.9149V57.186" stroke="#171717" stroke-width="2.32539"/>
</svg>
