<svg width="15" height="14" viewBox="0 0 15 14" fill="none" xmlns="http://www.w3.org/2000/svg">
<g clip-path="url(#clip0_89_874)">
<path d="M5.74996 12.8337C6.07213 12.8337 6.33329 12.5725 6.33329 12.2503C6.33329 11.9282 6.07213 11.667 5.74996 11.667C5.42779 11.667 5.16663 11.9282 5.16663 12.2503C5.16663 12.5725 5.42779 12.8337 5.74996 12.8337Z" stroke="white" stroke-linecap="round" stroke-linejoin="round"/>
<path d="M12.1667 12.8337C12.4889 12.8337 12.75 12.5725 12.75 12.2503C12.75 11.9282 12.4889 11.667 12.1667 11.667C11.8445 11.667 11.5834 11.9282 11.5834 12.2503C11.5834 12.5725 11.8445 12.8337 12.1667 12.8337Z" stroke="white" stroke-linecap="round" stroke-linejoin="round"/>
<path d="M1.08337 0.583008H3.41671L4.98004 8.39384C5.03338 8.66241 5.17949 8.90365 5.39278 9.07535C5.60606 9.24705 5.87295 9.33825 6.14671 9.33301H11.8167C12.0905 9.33825 12.3574 9.24705 12.5706 9.07535C12.7839 8.90365 12.93 8.66241 12.9834 8.39384L13.9167 3.49967H4.00004" stroke="white" stroke-linecap="round" stroke-linejoin="round"/>
</g>
<defs>
<clipPath id="clip0_89_874">
<rect width="14" height="14" fill="white" transform="translate(0.5)"/>
</clipPath>
</defs>
</svg>
